<svg xmlns="http://www.w3.org/2000/svg" viewBox="0 0 1600 900" width="1600" height="900" preserveAspectRatio="xMidYMid slice"><defs><linearGradient id="ceu" x1="0" y1="0" x2="0" y2="1"><stop offset="0" stop-color="#bfe9f5"/><stop offset="1" stop-color="#eafaf7"/></linearGradient><linearGradient id="agua" x1="0" y1="0" x2="0" y2="1"><stop offset="0" stop-color="#a9eee6"/><stop offset=".48" stop-color="#3fc9cb"/><stop offset="1" stop-color="#0d86a4"/></linearGradient><linearGradient id="mata" x1="0" y1="0" x2="0" y2="1"><stop offset="0" stop-color="#2f7d3e"/><stop offset="1" stop-color="#12492a"/></linearGradient><linearGradient id="areia" x1="0" y1="0" x2="0" y2="1"><stop offset="0" stop-color="#fbf3de"/><stop offset="1" stop-color="#eddfbc"/></linearGradient><linearGradient id="raso" x1="0" y1="0" x2="0" y2="1"><stop offset="0" stop-color="#d8f6f0" stop-opacity=".95"/><stop offset="1" stop-color="#7fdfd9" stop-opacity=".35"/></linearGradient><filter id="ruido"><feTurbulence type="fractalNoise" baseFrequency="0.85" numOctaves="3"/><feColorMatrix type="saturate" values="0"/></filter></defs><rect width="1600" height="900" fill="url(#ceu)"/><path d="M-20 210 q160 -46 320 -14 q180 36 340 -22 q190 -70 360 -6 q170 62 340 -20 q120 -58 280 -6 L1620 360 L-20 360 z" fill="url(#mata)"/><circle cx="906" cy="286" r="49" fill="#1f6234" opacity="0.55"/><circle cx="1182" cy="200" r="31" fill="#1f6234" opacity="0.71"/><circle cx="954" cy="256" r="31" fill="#1f6234" opacity="0.39"/><circle cx="601" cy="194" r="25" fill="#1f6234" opacity="0.59"/><circle cx="1400" cy="257" r="22" fill="#1f6234" opacity="0.62"/><circle cx="791" cy="299" r="48" fill="#1f6234" opacity="0.64"/><circle cx="1240" cy="259" r="30" fill="#1f6234" opacity="0.63"/><circle cx="1062" cy="184" r="23" fill="#1f6234" opacity="0.37"/><circle cx="475" cy="252" r="21" fill="#1f6234" opacity="0.70"/><circle cx="648" cy="232" r="32" fill="#1f6234" opacity="0.58"/><circle cx="1291" cy="213" r="51" fill="#1f6234" opacity="0.35"/><circle cx="154" cy="234" r="37" fill="#1f6234" opacity="0.53"/><circle cx="1108" cy="295" r="25" fill="#1f6234" opacity="0.67"/><circle cx="625" cy="273" r="34" fill="#1f6234" opacity="0.58"/><circle cx="40" cy="184" r="26" fill="#1f6234" opacity="0.53"/><circle cx="575" cy="225" r="24" fill="#1f6234" opacity="0.78"/><circle cx="1382" cy="176" r="33" fill="#1f6234" opacity="0.44"/><circle cx="87" cy="236" r="44" fill="#1f6234" opacity="0.79"/><circle cx="793" cy="229" r="24" fill="#1f6234" opacity="0.60"/><circle cx="386" cy="275" r="37" fill="#1f6234" opacity="0.50"/><circle cx="617" cy="218" r="20" fill="#1f6234" opacity="0.78"/><circle cx="1532" cy="294" r="27" fill="#1f6234" opacity="0.41"/><circle cx="1427" cy="188" r="20" fill="#1f6234" opacity="0.38"/><circle cx="1612" cy="238" r="31" fill="#1f6234" opacity="0.66"/><circle cx="365" cy="233" r="52" fill="#1f6234" opacity="0.44"/><circle cx="1478" cy="274" r="28" fill="#1f6234" opacity="0.54"/><circle cx="765" cy="190" r="45" fill="#1f6234" opacity="0.54"/><circle cx="415" cy="176" r="37" fill="#1f6234" opacity="0.74"/><circle cx="1193" cy="214" r="21" fill="#1f6234" opacity="0.44"/><circle cx="787" cy="285" r="26" fill="#1f6234" opacity="0.37"/><circle cx="279" cy="203" r="48" fill="#1f6234" opacity="0.47"/><circle cx="1562" cy="254" r="41" fill="#1f6234" opacity="0.72"/><circle cx="770" cy="185" r="24" fill="#1f6234" opacity="0.39"/><circle cx="1173" cy="257" r="35" fill="#1f6234" opacity="0.36"/><circle cx="735" cy="223" r="49" fill="#1f6234" opacity="0.41"/><circle cx="1182" cy="237" r="28" fill="#1f6234" opacity="0.74"/><circle cx="354" cy="256" r="29" fill="#1f6234" opacity="0.49"/><circle cx="447" cy="280" r="35" fill="#1f6234" opacity="0.68"/><circle cx="304" cy="270" r="32" fill="#1f6234" opacity="0.66"/><circle cx="775" cy="288" r="50" fill="#1f6234" opacity="0.62"/><circle cx="843" cy="182" r="26" fill="#1f6234" opacity="0.40"/><circle cx="1029" cy="299" r="36" fill="#1f6234" opacity="0.46"/><circle cx="1422" cy="226" r="36" fill="#1f6234" opacity="0.54"/><circle cx="1201" cy="238" r="38" fill="#1f6234" opacity="0.58"/><circle cx="1455" cy="301" r="24" fill="#1f6234" opacity="0.41"/><circle cx="961" cy="247" r="24" fill="#1f6234" opacity="0.48"/><path d="M-20 328 q220 -30 460 -6 q240 24 470 -12 q250 -38 710 4 L1620 414 q-420 40 -820 12 q-400 -28 -800 6 z" fill="url(#areia)"/><path d="M-20 420 q400 -38 800 -10 q400 28 820 -14 L1620 920 L-20 920 z" fill="url(#agua)"/><path d="M-20 420 q400 -38 800 -10 q400 28 820 -14 l0 74 q-420 40 -820 10 q-400 -30 -800 8 z" fill="url(#raso)"/><ellipse cx="311" cy="492" rx="259" ry="16" fill="#ffffff" opacity=".20"/><ellipse cx="859" cy="601" rx="151" ry="9" fill="#ffffff" opacity=".20"/><ellipse cx="345" cy="680" rx="250" ry="15" fill="#ffffff" opacity=".20"/><ellipse cx="951" cy="523" rx="212" ry="13" fill="#ffffff" opacity=".20"/><ellipse cx="545" cy="664" rx="157" ry="9" fill="#ffffff" opacity=".20"/><ellipse cx="341" cy="559" rx="267" ry="16" fill="#ffffff" opacity=".20"/><ellipse cx="181" cy="596" rx="223" ry="13" fill="#ffffff" opacity=".20"/><ellipse cx="1322" cy="820" rx="291" ry="18" fill="#ffffff" opacity=".20"/><ellipse cx="297" cy="873" rx="297" ry="18" fill="#ffffff" opacity=".20"/><ellipse cx="420" cy="516" rx="150" ry="9" fill="#ffffff" opacity=".20"/><ellipse cx="350" cy="806" rx="183" ry="11" fill="#ffffff" opacity=".20"/><ellipse cx="1118" cy="689" rx="141" ry="8" fill="#ffffff" opacity=".20"/><ellipse cx="1599" cy="776" rx="283" ry="17" fill="#ffffff" opacity=".20"/><ellipse cx="1651" cy="682" rx="145" ry="9" fill="#ffffff" opacity=".20"/><ellipse cx="1406" cy="583" rx="157" ry="9" fill="#ffffff" opacity=".20"/><ellipse cx="-47" cy="605" rx="193" ry="12" fill="#ffffff" opacity=".20"/><g transform="translate(158,401) scale(0.811)"><ellipse cx="0" cy="4" rx="26" ry="5" fill="#0d5f4a" opacity=".16"/><path d="M0 0 v-30" stroke="#a98d63" stroke-width="3" stroke-linecap="round"/><path d="M-30 -30 q30 -26 60 0 z" fill="#e9d9b4"/><path d="M-30 -30 q30 -26 60 0" fill="none" stroke="#b9a577" stroke-width="1.6"/></g><g transform="translate(319,380) scale(0.873)"><ellipse cx="0" cy="4" rx="26" ry="5" fill="#0d5f4a" opacity=".16"/><path d="M0 0 v-30" stroke="#a98d63" stroke-width="3" stroke-linecap="round"/><path d="M-30 -30 q30 -26 60 0 z" fill="#e9d9b4"/><path d="M-30 -30 q30 -26 60 0" fill="none" stroke="#b9a577" stroke-width="1.6"/></g><g transform="translate(533,373) scale(0.803)"><ellipse cx="0" cy="4" rx="26" ry="5" fill="#0d5f4a" opacity=".16"/><path d="M0 0 v-30" stroke="#a98d63" stroke-width="3" stroke-linecap="round"/><path d="M-30 -30 q30 -26 60 0 z" fill="#f0e3c6"/><path d="M-30 -30 q30 -26 60 0" fill="none" stroke="#b9a577" stroke-width="1.6"/></g><g transform="translate(778,390) scale(1.042)"><ellipse cx="0" cy="4" rx="26" ry="5" fill="#0d5f4a" opacity=".16"/><path d="M0 0 v-30" stroke="#a98d63" stroke-width="3" stroke-linecap="round"/><path d="M-30 -30 q30 -26 60 0 z" fill="#e9d9b4"/><path d="M-30 -30 q30 -26 60 0" fill="none" stroke="#b9a577" stroke-width="1.6"/></g><g transform="translate(983,376) scale(1.017)"><ellipse cx="0" cy="4" rx="26" ry="5" fill="#0d5f4a" opacity=".16"/><path d="M0 0 v-30" stroke="#a98d63" stroke-width="3" stroke-linecap="round"/><path d="M-30 -30 q30 -26 60 0 z" fill="#f0e3c6"/><path d="M-30 -30 q30 -26 60 0" fill="none" stroke="#b9a577" stroke-width="1.6"/></g><g transform="translate(1217,395) scale(0.957)"><ellipse cx="0" cy="4" rx="26" ry="5" fill="#0d5f4a" opacity=".16"/><path d="M0 0 v-30" stroke="#a98d63" stroke-width="3" stroke-linecap="round"/><path d="M-30 -30 q30 -26 60 0 z" fill="#dfcda3"/><path d="M-30 -30 q30 -26 60 0" fill="none" stroke="#b9a577" stroke-width="1.6"/></g><g transform="translate(1450,376) scale(0.927)"><ellipse cx="0" cy="4" rx="26" ry="5" fill="#0d5f4a" opacity=".16"/><path d="M0 0 v-30" stroke="#a98d63" stroke-width="3" stroke-linecap="round"/><path d="M-30 -30 q30 -26 60 0 z" fill="#e9d9b4"/><path d="M-30 -30 q30 -26 60 0" fill="none" stroke="#b9a577" stroke-width="1.6"/></g><g transform="translate(96,390) scale(0.78)"><path d="M-4 0 q10 -62 2 -128 l9 0 q8 66 -1 128 z" fill="#3a2b1f"/><path d="M2 -128 q-58 -30 -87 6 q-34 -14 -56 -20 z" fill="#1d5c33"/><path d="M2 -128 q-20 -30 -30 6 q-12 -14 -19 -20 z" fill="#1d5c33"/><path d="M2 -128 q16 -30 24 6 q-9 -14 -15 -20 z" fill="#1d5c33"/><path d="M2 -128 q52 -30 78 6 q-31 -14 -50 -20 z" fill="#1d5c33"/><path d="M2 -128 q-88 -30 -132 6 q-52 -14 -86 -20 z" fill="#1d5c33"/><path d="M2 -128 q86 -30 129 6 q-51 -14 -84 -20 z" fill="#1d5c33"/></g><g transform="translate(1480,390) scale(0.7)"><path d="M-4 0 q10 -62 2 -128 l9 0 q8 66 -1 128 z" fill="#3a2b1f"/><path d="M2 -128 q-58 -30 -87 6 q-34 -14 -56 -20 z" fill="#1d5c33"/><path d="M2 -128 q-20 -30 -30 6 q-12 -14 -19 -20 z" fill="#1d5c33"/><path d="M2 -128 q16 -30 24 6 q-9 -14 -15 -20 z" fill="#1d5c33"/><path d="M2 -128 q52 -30 78 6 q-31 -14 -50 -20 z" fill="#1d5c33"/><path d="M2 -128 q-88 -30 -132 6 q-52 -14 -86 -20 z" fill="#1d5c33"/><path d="M2 -128 q86 -30 129 6 q-51 -14 -84 -20 z" fill="#1d5c33"/></g><g transform="translate(1290,390) scale(0.58)"><path d="M-4 0 q10 -62 2 -128 l9 0 q8 66 -1 128 z" fill="#3a2b1f"/><path d="M2 -128 q-58 -30 -87 6 q-34 -14 -56 -20 z" fill="#1d5c33"/><path d="M2 -128 q-20 -30 -30 6 q-12 -14 -19 -20 z" fill="#1d5c33"/><path d="M2 -128 q16 -30 24 6 q-9 -14 -15 -20 z" fill="#1d5c33"/><path d="M2 -128 q52 -30 78 6 q-31 -14 -50 -20 z" fill="#1d5c33"/><path d="M2 -128 q-88 -30 -132 6 q-52 -14 -86 -20 z" fill="#1d5c33"/><path d="M2 -128 q86 -30 129 6 q-51 -14 -84 -20 z" fill="#1d5c33"/></g><g transform="translate(170,571) rotate(-4) scale(1.0)"><ellipse cx="2" cy="16" rx="52" ry="9" fill="#0a6d80" opacity=".22"/><path d="M-52 0 q6 13 16 13 h72 q10 0 16 -13 z" fill="#f6f8f7"/><path d="M-52 0 h104 l-5 -6 h-94 z" fill="#dfe7e4"/><rect x="-30" y="-20" width="60" height="8" rx="3" fill="#2f6f9e"/><path d="M-30 -12 v12 M30 -12 v12" stroke="#c8d2ce" stroke-width="2.4"/><path d="M0 -20 v-26" stroke="#8b9691" stroke-width="3" stroke-linecap="round"/><path d="M0 -44 q16 8 0 16 z" fill="#ffffff" opacity=".85"/></g><g transform="translate(436,642) rotate(0) scale(0.75)"><ellipse cx="2" cy="16" rx="52" ry="9" fill="#0a6d80" opacity=".22"/><path d="M-52 0 q6 13 16 13 h72 q10 0 16 -13 z" fill="#f6f8f7"/><path d="M-52 0 h104 l-5 -6 h-94 z" fill="#dfe7e4"/><rect x="-30" y="-20" width="60" height="8" rx="3" fill="#2f6f9e"/><path d="M-30 -12 v12 M30 -12 v12" stroke="#c8d2ce" stroke-width="2.4"/><path d="M0 -20 v-26" stroke="#8b9691" stroke-width="3" stroke-linecap="round"/><path d="M0 -44 q16 8 0 16 z" fill="#ffffff" opacity=".85"/></g><g transform="translate(650,514) rotate(3) scale(1.12)"><ellipse cx="2" cy="16" rx="52" ry="9" fill="#0a6d80" opacity=".22"/><path d="M-52 0 q6 13 16 13 h72 q10 0 16 -13 z" fill="#f6f8f7"/><path d="M-52 0 h104 l-5 -6 h-94 z" fill="#dfe7e4"/><rect x="-30" y="-20" width="60" height="8" rx="3" fill="#2f6f9e"/><path d="M-30 -12 v12 M30 -12 v12" stroke="#c8d2ce" stroke-width="2.4"/><path d="M0 -20 v-26" stroke="#8b9691" stroke-width="3" stroke-linecap="round"/><path d="M0 -44 q16 8 0 16 z" fill="#ffffff" opacity=".85"/></g><g transform="translate(929,574) rotate(1) scale(1.015)"><ellipse cx="2" cy="16" rx="52" ry="9" fill="#0a6d80" opacity=".22"/><path d="M-52 0 q6 13 16 13 h72 q10 0 16 -13 z" fill="#f6f8f7"/><path d="M-52 0 h104 l-5 -6 h-94 z" fill="#dfe7e4"/><rect x="-30" y="-20" width="60" height="8" rx="3" fill="#c9603f"/><path d="M-30 -12 v12 M30 -12 v12" stroke="#c8d2ce" stroke-width="2.4"/><path d="M0 -20 v-26" stroke="#8b9691" stroke-width="3" stroke-linecap="round"/><path d="M0 -44 q16 8 0 16 z" fill="#ffffff" opacity=".85"/></g><g transform="translate(1155,501) rotate(2) scale(0.994)"><ellipse cx="2" cy="16" rx="52" ry="9" fill="#0a6d80" opacity=".22"/><path d="M-52 0 q6 13 16 13 h72 q10 0 16 -13 z" fill="#f6f8f7"/><path d="M-52 0 h104 l-5 -6 h-94 z" fill="#dfe7e4"/><rect x="-30" y="-20" width="60" height="8" rx="3" fill="#2f6f9e"/><path d="M-30 -12 v12 M30 -12 v12" stroke="#c8d2ce" stroke-width="2.4"/><path d="M0 -20 v-26" stroke="#8b9691" stroke-width="3" stroke-linecap="round"/><path d="M0 -44 q16 8 0 16 z" fill="#ffffff" opacity=".85"/></g><g transform="translate(1480,682) rotate(-4) scale(0.732)"><ellipse cx="2" cy="16" rx="52" ry="9" fill="#0a6d80" opacity=".22"/><path d="M-52 0 q6 13 16 13 h72 q10 0 16 -13 z" fill="#f6f8f7"/><path d="M-52 0 h104 l-5 -6 h-94 z" fill="#dfe7e4"/><rect x="-30" y="-20" width="60" height="8" rx="3" fill="#3a5a8c"/><path d="M-30 -12 v12 M30 -12 v12" stroke="#c8d2ce" stroke-width="2.4"/><path d="M0 -20 v-26" stroke="#8b9691" stroke-width="3" stroke-linecap="round"/><path d="M0 -44 q16 8 0 16 z" fill="#ffffff" opacity=".85"/></g><rect width="1600" height="900" filter="url(#ruido)" opacity="0.045"/></svg>