<svg xmlns="http://www.w3.org/2000/svg" viewBox="0 0 1600 900" width="1600" height="900" preserveAspectRatio="xMidYMid slice"><defs><linearGradient id="ceu" x1="0" y1="0" x2="0" y2="1"><stop offset="0" stop-color="#3b2f6b"/><stop offset=".38" stop-color="#e0644f"/><stop offset=".68" stop-color="#f9a94f"/><stop offset="1" stop-color="#fbd28a"/></linearGradient><linearGradient id="rio" x1="0" y1="0" x2="0" y2="1"><stop offset="0" stop-color="#f6b45f"/><stop offset=".5" stop-color="#c86a52"/><stop offset="1" stop-color="#5b3552"/></linearGradient><filter id="ruido"><feTurbulence type="fractalNoise" baseFrequency="0.85" numOctaves="3"/><feColorMatrix type="saturate" values="0"/></filter></defs><rect width="1600" height="900" fill="url(#ceu)"/><circle cx="900" cy="486" r="190" fill="#ffe9b0" opacity=".2"/><circle cx="900" cy="486" r="118" fill="#ffeec2" opacity=".3"/><circle cx="900" cy="486" r="66" fill="#fff4d4"/><ellipse cx="300" cy="300" rx="240" ry="9" fill="#ffd8a8" opacity=".2"/><ellipse cx="430" cy="322" rx="226" ry="9" fill="#ffd8a8" opacity=".2"/><ellipse cx="560" cy="344" rx="212" ry="9" fill="#ffd8a8" opacity=".2"/><ellipse cx="690" cy="366" rx="198" ry="8" fill="#ffd8a8" opacity=".2"/><ellipse cx="820" cy="388" rx="184" ry="8" fill="#ffd8a8" opacity=".2"/><ellipse cx="950" cy="410" rx="170" ry="8" fill="#ffd8a8" opacity=".2"/><ellipse cx="1080" cy="432" rx="156" ry="7" fill="#ffd8a8" opacity=".2"/><ellipse cx="1210" cy="454" rx="142" ry="7" fill="#ffd8a8" opacity=".2"/><ellipse cx="1340" cy="476" rx="128" ry="7" fill="#ffd8a8" opacity=".2"/><path d="M-20 520 q200 -26 420 -8 q240 20 470 -10 q250 -26 750 6 L1620 560 L-20 560 z" fill="#2a1f3a" opacity=".85"/><path d="M-20 552 L1620 552 L1620 920 L-20 920 z" fill="url(#rio)"/><ellipse cx="900" cy="580" rx="40" ry="4" fill="#ffe0a3" opacity="0.34"/><ellipse cx="900" cy="595" rx="66" ry="4" fill="#ffe0a3" opacity="0.33"/><ellipse cx="900" cy="610" rx="92" ry="4" fill="#ffe0a3" opacity="0.31"/><ellipse cx="900" cy="625" rx="118" ry="4" fill="#ffe0a3" opacity="0.30"/><ellipse cx="900" cy="640" rx="144" ry="4" fill="#ffe0a3" opacity="0.29"/><ellipse cx="900" cy="655" rx="170" ry="4" fill="#ffe0a3" opacity="0.28"/><ellipse cx="900" cy="670" rx="196" ry="5" fill="#ffe0a3" opacity="0.26"/><ellipse cx="900" cy="685" rx="222" ry="5" fill="#ffe0a3" opacity="0.25"/><ellipse cx="900" cy="700" rx="248" ry="5" fill="#ffe0a3" opacity="0.24"/><ellipse cx="900" cy="715" rx="274" ry="5" fill="#ffe0a3" opacity="0.22"/><ellipse cx="900" cy="730" rx="300" ry="5" fill="#ffe0a3" opacity="0.21"/><ellipse cx="900" cy="745" rx="326" ry="5" fill="#ffe0a3" opacity="0.20"/><ellipse cx="900" cy="760" rx="352" ry="6" fill="#ffe0a3" opacity="0.18"/><ellipse cx="900" cy="775" rx="378" ry="6" fill="#ffe0a3" opacity="0.17"/><ellipse cx="900" cy="790" rx="404" ry="6" fill="#ffe0a3" opacity="0.16"/><ellipse cx="900" cy="805" rx="430" ry="6" fill="#ffe0a3" opacity="0.15"/><ellipse cx="900" cy="820" rx="456" ry="6" fill="#ffe0a3" opacity="0.13"/><ellipse cx="900" cy="835" rx="482" ry="6" fill="#ffe0a3" opacity="0.12"/><ellipse cx="900" cy="850" rx="508" ry="7" fill="#ffe0a3" opacity="0.11"/><ellipse cx="900" cy="865" rx="534" ry="7" fill="#ffe0a3" opacity="0.09"/><ellipse cx="900" cy="880" rx="560" ry="7" fill="#ffe0a3" opacity="0.08"/><ellipse cx="900" cy="895" rx="586" ry="7" fill="#ffe0a3" opacity="0.07"/><g transform="translate(430,720) rotate(0) scale(1.15)"><ellipse cx="2" cy="16" rx="52" ry="9" fill="#0a6d80" opacity=".22"/><path d="M-52 0 q6 13 16 13 h72 q10 0 16 -13 z" fill="#f6f8f7"/><path d="M-52 0 h104 l-5 -6 h-94 z" fill="#dfe7e4"/><rect x="-30" y="-20" width="60" height="8" rx="3" fill="#3a2b45"/><path d="M-30 -12 v12 M30 -12 v12" stroke="#c8d2ce" stroke-width="2.4"/><path d="M0 -20 v-26" stroke="#8b9691" stroke-width="3" stroke-linecap="round"/><path d="M0 -44 q16 8 0 16 z" fill="#ffffff" opacity=".85"/></g><g transform="translate(1240,660) rotate(0) scale(0.85)"><ellipse cx="2" cy="16" rx="52" ry="9" fill="#0a6d80" opacity=".22"/><path d="M-52 0 q6 13 16 13 h72 q10 0 16 -13 z" fill="#f6f8f7"/><path d="M-52 0 h104 l-5 -6 h-94 z" fill="#dfe7e4"/><rect x="-30" y="-20" width="60" height="8" rx="3" fill="#3a2b45"/><path d="M-30 -12 v12 M30 -12 v12" stroke="#c8d2ce" stroke-width="2.4"/><path d="M0 -20 v-26" stroke="#8b9691" stroke-width="3" stroke-linecap="round"/><path d="M0 -44 q16 8 0 16 z" fill="#ffffff" opacity=".85"/></g><g transform="translate(150,560) scale(0.95)"><path d="M-4 0 q10 -62 2 -128 l9 0 q8 66 -1 128 z" fill="#3a2b1f"/><path d="M2 -128 q-58 -30 -87 6 q-34 -14 -56 -20 z" fill="#241c33"/><path d="M2 -128 q-20 -30 -30 6 q-12 -14 -19 -20 z" fill="#241c33"/><path d="M2 -128 q16 -30 24 6 q-9 -14 -15 -20 z" fill="#241c33"/><path d="M2 -128 q52 -30 78 6 q-31 -14 -50 -20 z" fill="#241c33"/><path d="M2 -128 q-88 -30 -132 6 q-52 -14 -86 -20 z" fill="#241c33"/><path d="M2 -128 q86 -30 129 6 q-51 -14 -84 -20 z" fill="#241c33"/></g><g transform="translate(1470,552) scale(0.8)"><path d="M-4 0 q10 -62 2 -128 l9 0 q8 66 -1 128 z" fill="#3a2b1f"/><path d="M2 -128 q-58 -30 -87 6 q-34 -14 -56 -20 z" fill="#241c33"/><path d="M2 -128 q-20 -30 -30 6 q-12 -14 -19 -20 z" fill="#241c33"/><path d="M2 -128 q16 -30 24 6 q-9 -14 -15 -20 z" fill="#241c33"/><path d="M2 -128 q52 -30 78 6 q-31 -14 -50 -20 z" fill="#241c33"/><path d="M2 -128 q-88 -30 -132 6 q-52 -14 -86 -20 z" fill="#241c33"/><path d="M2 -128 q86 -30 129 6 q-51 -14 -84 -20 z" fill="#241c33"/></g><rect width="1600" height="900" filter="url(#ruido)" opacity="0.05"/></svg>