<svg xmlns="http://www.w3.org/2000/svg" viewBox="0 0 1200 800" width="1200" height="800" preserveAspectRatio="xMidYMid slice"><defs><linearGradient id="sky2" x1="0" y1="0" x2="0" y2="1"><stop offset="0" stop-color="#cfeff2"/><stop offset="1" stop-color="#f4f9e9"/></linearGradient><linearGradient id="cliff" x1="0" y1="0" x2="0" y2="1"><stop offset="0" stop-color="#2f6b3d"/><stop offset="1" stop-color="#12331f"/></linearGradient><linearGradient id="fall" x1="0" y1="0" x2="0" y2="1"><stop offset="0" stop-color="#ffffff"/><stop offset="1" stop-color="#bfe4ee"/></linearGradient><linearGradient id="lagoa" x1="0" y1="0" x2="0" y2="1"><stop offset="0" stop-color="#3fbfa9"/><stop offset="1" stop-color="#10796f"/></linearGradient></defs><rect width="1200" height="800" fill="url(#sky2)"/><path d="M -20 -20 L 430 -20 L 470 250 L 400 560 L -20 620 Z" fill="url(#cliff)"/><path d="M 780 -20 L 1220 -20 L 1220 640 L 800 570 L 740 260 Z" fill="url(#cliff)"/><path d="M 470 60 Q 520 300 560 520 L 700 520 Q 730 300 760 60 Z" fill="url(#fall)" opacity=".95"/><path d="M 520 90 Q 556 300 585 500" stroke="#eaf7fb" stroke-width="14" fill="none" opacity=".8"/><path d="M 690 90 Q 668 300 655 500" stroke="#eaf7fb" stroke-width="10" fill="none" opacity=".7"/><ellipse cx="628" cy="560" rx="230" ry="52" fill="#ffffff" opacity=".65"/><path d="M -20 580 Q 300 630 628 596 Q 950 560 1220 618 L 1220 820 L -20 820 Z" fill="url(#lagoa)"/><ellipse cx="430" cy="700" rx="240" ry="20" fill="#ffffff" opacity=".18"/><ellipse cx="880" cy="740" rx="200" ry="16" fill="#ffffff" opacity=".14"/><path d="M 150 600 q 7 -44 2 -105 l 8 0 q 6 61 -1 105 Z" fill="#12331f"/><path d="M 153 496 q -44 -61 -77 -20 q 24 21 77 29 Z" fill="#12331f"/><path d="M 153 496 q 44 -57 77 -15 q -24 20 -77 24 Z" fill="#12331f"/><path d="M 153 496 q -51 -24 -57 29 q 28 8 57 -20 Z" fill="#12331f"/><path d="M 153 496 q 53 -22 62 33 q -29 8 -62 -24 Z" fill="#12331f"/><path d="M 153 496 q -24 -44 -15 -48 q 13 15 15 57 Z" fill="#12331f"/><path d="M 153 496 q 29 -42 20 -46 q -16 15 -20 55 Z" fill="#12331f"/><path d="M 1080 620 q -6 -40 -2 -95 l 7 0 q -5 55 1 95 Z" fill="#12331f"/><path d="M 1083 525 q 40 -55 70 -18 q -22 19 -70 26 Z" fill="#12331f"/><path d="M 1083 525 q -40 -52 -70 -14 q 22 18 70 22 Z" fill="#12331f"/><path d="M 1083 525 q 46 -22 52 26 q -25 8 -52 -18 Z" fill="#12331f"/><path d="M 1083 525 q -48 -20 -56 30 q 26 7 56 -22 Z" fill="#12331f"/><path d="M 1083 525 q 22 -40 14 -44 q -12 14 -14 52 Z" fill="#12331f"/><path d="M 1083 525 q -26 -38 -18 -42 q 14 13 18 50 Z" fill="#12331f"/><filter id="gr"><feTurbulence type="fractalNoise" baseFrequency="0.9" numOctaves="3"/><feColorMatrix type="saturate" values="0"/></filter><rect width="1200" height="800" filter="url(#gr)" opacity="0.05"/></svg>